<?xml version="1.0" standalone="no"?>
<!DOCTYPE svg PUBLIC "-//W3C//DTD SVG 20010904//EN"
 "http://www.w3.org/TR/2001/REC-SVG-20010904/DTD/svg10.dtd">
<svg version="1.0" xmlns="http://www.w3.org/2000/svg"
 width="1280.000000pt" height="1280.000000pt" viewBox="0 0 1280.000000 1280.000000"
 preserveAspectRatio="xMidYMid meet">
<metadata>
Created by potrace 1.11, written by Peter Selinger 2001-2013
</metadata>
<g transform="translate(0.000000,1280.000000) scale(0.100000,-0.100000)"
fill="#000000" stroke="none">
<path d="M6090 11814 c-505 -42 -845 -103 -1237 -220 -1206 -360 -2259 -1138
-2960 -2189 -497 -744 -792 -1566 -888 -2475 -23 -208 -31 -670 -16 -885 41
-596 159 -1123 378 -1680 70 -180 269 -583 370 -750 533 -883 1260 -1571 2163
-2048 519 -274 1157 -478 1755 -562 493 -69 1072 -67 1550 5 1519 229 2846
1063 3707 2330 478 703 787 1522 892 2365 45 362 54 840 22 1165 -91 929 -371
1736 -864 2490 -213 326 -424 585 -721 880 -443 442 -892 761 -1456 1036 -578
282 -1148 444 -1825 519 -137 16 -754 29 -870 19z m2150 -2531 c131 -54 232
-159 270 -280 20 -64 20 -90 20 -1811 l0 -1747 -152 -152 -153 -153 258 -258
257 -257 -104 -104 -104 -104 -2 -314 c-1 -301 -2 -317 -24 -378 -39 -109
-114 -193 -216 -245 -89 -46 -127 -50 -445 -50 l-301 0 -169 -170 c-93 -93
-176 -170 -184 -170 -16 0 -477 -122 -548 -145 -48 -15 -52 -11 -23 20 18 19
18 23 4 43 -19 27 -41 28 -69 2 -20 -19 -16 3 36 197 32 120 59 219 59 220 0
2 -602 4 -1337 5 l-1338 3 -78 37 c-139 67 -234 191 -257 338 -14 90 -14 5030
0 5120 21 132 116 267 228 324 115 58 -23 55 2237 53 l2080 -2 55 -22z"/>
<path d="M4910 8355 l-415 -415 -201 200 c-157 156 -207 200 -227 200 -33 0
-59 -26 -55 -56 4 -33 454 -484 482 -484 29 0 916 887 916 916 0 27 -30 54
-61 54 -18 0 -121 -97 -439 -415z"/>
<path d="M5600 8267 c-17 -9 -26 -22 -28 -44 -7 -67 -87 -64 1237 -61 1167 3
1193 3 1207 22 18 25 18 47 0 72 -14 19 -39 19 -1203 21 -943 2 -1193 0 -1213
-10z"/>
<path d="M4908 7073 l-418 -418 -203 203 c-134 133 -209 202 -223 202 -27 0
-54 -30 -54 -60 0 -36 444 -480 480 -480 20 0 116 91 470 445 245 245 446 454
448 466 2 11 -4 29 -14 40 -41 46 -45 42 -486 -398z"/>
<path d="M5592 6964 c-24 -16 -28 -44 -12 -75 10 -19 35 -19 1215 -19 1081 0
1205 2 1219 16 22 21 20 50 -4 74 -20 20 -33 20 -1208 20 -1059 0 -1190 -2
-1210 -16z"/>
<path d="M4915 5800 l-420 -420 -205 205 c-114 113 -213 205 -221 205 -28 0
-59 -30 -59 -58 0 -21 46 -72 234 -260 204 -205 237 -233 257 -228 32 9 909
895 909 918 0 23 -35 58 -58 58 -9 0 -203 -186 -437 -420z"/>
<path d="M5587 5662 c-21 -23 -22 -56 -1 -76 14 -14 138 -16 1213 -16 1148 0
1199 1 1214 18 22 24 21 55 -1 75 -17 16 -116 17 -1214 17 -1145 0 -1196 -1
-1211 -18z"/>
<path d="M8035 3928 l-480 -483 483 480 c265 264 482 481 482 482 0 7 -39 -31
-485 -479z"/>
</g>
</svg>
